<svg xmlns="http://www.w3.org/2000/svg" viewBox="0 0 64 64">
  <path d="M32 8c8.5 0 14 5.3 14 13.3 0 4.5-1.9 8.2-5.3 12.7-3.7 4.8-4.7 7.1-4.7 10.7v1.8c0 1.2-.9 2.1-2.1 2.1h-3.8c-1.2 0-2.1-.9-2.1-2.1v-2.2c0-5 1.6-8.8 5.8-14.1 2.8-3.5 4.1-5.8 4.1-8.7 0-3.7-2.3-5.9-5.9-5.9-3.7 0-6.1 2.6-6.8 7.3-.1 1-.9 1.8-2 1.8h-4c-1.3 0-2.3-1.1-2.1-2.4C18.3 14.5 23.8 8 32 8Z" fill="#824700"/>
  <path d="M32 12.8c6.3 0 10.3 3.8 10.3 9.6 0 3.3-1.4 6.2-4.4 10-4.1 5.2-5.2 8.2-5.2 12.7h-1.3c0-5.9 1.6-9.9 5.4-14.8 2.6-3.3 3.7-5.3 3.7-8 0-3.2-1.8-5.1-4.7-5.1-3 0-5 2-5.7 5.9h-6.5c.8-7 4.6-11.3 8.4-11.3Z" fill="#fff86f"/>
  <ellipse cx="32" cy="53" rx="8.5" ry="7.5" fill="#824700"/>
  <ellipse cx="32" cy="53" rx="5.4" ry="4.8" fill="#fff86f"/>
</svg>
